<svg xmlns="http://www.w3.org/2000/svg" version="1.1" xmlns:xlink="http://www.w3.org/1999/xlink" width="1000" height="1000"><style>
    #light-icon {
      display: inline;
    }
    #dark-icon {
      display: none;
    }

    @media (prefers-color-scheme: dark) {
      #light-icon {
        display: none;
      }
      #dark-icon {
        display: inline;
      }
    }
  </style><g id="light-icon"><svg xmlns="http://www.w3.org/2000/svg" version="1.1" xmlns:xlink="http://www.w3.org/1999/xlink" width="1000" height="1000"><g clip-path="url(#SvgjsClipPath1183)"><rect width="1000" height="1000" fill="#ffffff"></rect><g transform="matrix(4,0,0,4,100,100)"><svg xmlns="http://www.w3.org/2000/svg" version="1.1" xmlns:xlink="http://www.w3.org/1999/xlink" width="200" height="200"><svg xmlns="http://www.w3.org/2000/svg" version="1.1" xmlns:xlink="http://www.w3.org/1999/xlink" viewBox="0 0 200 200"><rect width="200" height="200" fill="url('#gradient')"></rect><defs><linearGradient id="gradient" gradientTransform="rotate(45 0.5 0.5)"><stop offset="0%" stop-color="#dee90b"></stop><stop offset="100%" stop-color="#d9e241"></stop></linearGradient><clipPath id="SvgjsClipPath1183"><rect width="1000" height="1000" x="0" y="0" rx="500" ry="500"></rect></clipPath></defs><g><g fill="#1b3855" transform="matrix(3.00440097799511,0,0,3.00440097799511,8.114341563000949,121.35064303111331)" stroke="#0e5278" stroke-width="0.2"><path d="M8.41-3.78L8.41-3.78Q8.41-4.53 7.88-4.95Q7.34-5.37 6.01-5.82Q4.67-6.27 3.82-6.69L3.82-6.69Q1.05-8.05 1.05-10.42L1.05-10.42Q1.05-11.60 1.74-12.50Q2.43-13.41 3.69-13.91Q4.95-14.41 6.52-14.41L6.52-14.41Q8.06-14.41 9.27-13.87Q10.49-13.32 11.16-12.31Q11.84-11.30 11.84-10L11.84-10L8.42-10Q8.42-10.87 7.89-11.35Q7.35-11.83 6.45-11.83L6.45-11.83Q5.53-11.83 5.00-11.42Q4.46-11.02 4.46-10.39L4.46-10.39Q4.46-9.84 5.05-9.40Q5.63-8.96 7.11-8.48Q8.58-8.01 9.53-7.46L9.53-7.46Q11.84-6.13 11.84-3.80L11.84-3.80Q11.84-1.93 10.43-0.87Q9.02 0.20 6.57 0.20L6.57 0.20Q4.84 0.20 3.44-0.42Q2.04-1.04 1.33-2.12Q0.63-3.20 0.63-4.61L0.63-4.61L4.06-4.61Q4.06-3.47 4.65-2.92Q5.24-2.38 6.57-2.38L6.57-2.38Q7.42-2.38 7.92-2.75Q8.41-3.12 8.41-3.78ZM16.02-10.57L17.66-3.92L19.33-10.57L22.79-10.57L19.35 0L15.99 0L12.54-10.57L16.02-10.57ZM30.22-10.64L30.17-7.59L29.08-7.67Q27.53-7.67 27.09-6.69L27.09-6.69L27.09 0L23.80 0L23.80-10.57L26.88-10.57L26.99-9.21Q27.82-10.76 29.31-10.76L29.31-10.76Q29.83-10.76 30.22-10.64L30.22-10.64ZM40.54-14.22L42.52-5.30L44.15-14.22L47.55-14.22L44.53 0L40.98 0L39.07-8.11L37.21 0L33.66 0L30.63-14.22L34.04-14.22L35.67-5.30L37.63-14.22L40.54-14.22ZM51.87-14.22L54.19-9.49L56.51-14.22L60.43-14.22L56.46-7.17L60.54 0L56.58 0L54.19-4.81L51.80 0L47.85 0L51.92-7.17L47.96-14.22L51.87-14.22Z"></path></g></g></svg></svg></g></g></svg></g><g id="dark-icon"><svg xmlns="http://www.w3.org/2000/svg" version="1.1" xmlns:xlink="http://www.w3.org/1999/xlink" width="1000" height="1000"><g><g transform="matrix(5,0,0,5,0,0)" style="filter: invert(100%)"><svg xmlns="http://www.w3.org/2000/svg" version="1.1" xmlns:xlink="http://www.w3.org/1999/xlink" width="200" height="200"><svg xmlns="http://www.w3.org/2000/svg" version="1.1" xmlns:xlink="http://www.w3.org/1999/xlink" viewBox="0 0 200 200"><rect width="200" height="200" fill="url('#gradient')"></rect><defs><linearGradient id="gradient" gradientTransform="rotate(45 0.5 0.5)"><stop offset="0%" stop-color="#dee90b"></stop><stop offset="100%" stop-color="#d9e241"></stop></linearGradient></defs><g><g fill="#1b3855" transform="matrix(3.00440097799511,0,0,3.00440097799511,8.114341563000949,121.35064303111331)" stroke="#0e5278" stroke-width="0.2"><path d="M8.41-3.78L8.41-3.78Q8.41-4.53 7.88-4.95Q7.34-5.37 6.01-5.82Q4.67-6.27 3.82-6.69L3.82-6.69Q1.05-8.05 1.05-10.42L1.05-10.42Q1.05-11.60 1.74-12.50Q2.43-13.41 3.69-13.91Q4.95-14.41 6.52-14.41L6.52-14.41Q8.06-14.41 9.27-13.87Q10.49-13.32 11.16-12.31Q11.84-11.30 11.84-10L11.84-10L8.42-10Q8.42-10.87 7.89-11.35Q7.35-11.83 6.45-11.83L6.45-11.83Q5.53-11.83 5.00-11.42Q4.46-11.02 4.46-10.39L4.46-10.39Q4.46-9.84 5.05-9.40Q5.63-8.96 7.11-8.48Q8.58-8.01 9.53-7.46L9.53-7.46Q11.84-6.13 11.84-3.80L11.84-3.80Q11.84-1.93 10.43-0.87Q9.02 0.20 6.57 0.20L6.57 0.20Q4.84 0.20 3.44-0.42Q2.04-1.04 1.33-2.12Q0.63-3.20 0.63-4.61L0.63-4.61L4.06-4.61Q4.06-3.47 4.65-2.92Q5.24-2.38 6.57-2.38L6.57-2.38Q7.42-2.38 7.92-2.75Q8.41-3.12 8.41-3.78ZM16.02-10.57L17.66-3.92L19.33-10.57L22.79-10.57L19.35 0L15.99 0L12.54-10.57L16.02-10.57ZM30.22-10.64L30.17-7.59L29.08-7.67Q27.53-7.67 27.09-6.69L27.09-6.69L27.09 0L23.80 0L23.80-10.57L26.88-10.57L26.99-9.21Q27.82-10.76 29.31-10.76L29.31-10.76Q29.83-10.76 30.22-10.64L30.22-10.64ZM40.54-14.22L42.52-5.30L44.15-14.22L47.55-14.22L44.53 0L40.98 0L39.07-8.11L37.21 0L33.66 0L30.63-14.22L34.04-14.22L35.67-5.30L37.63-14.22L40.54-14.22ZM51.87-14.22L54.19-9.49L56.51-14.22L60.43-14.22L56.46-7.17L60.54 0L56.58 0L54.19-4.81L51.80 0L47.85 0L51.92-7.17L47.96-14.22L51.87-14.22Z"></path></g></g></svg></svg></g></g></svg></g></svg>